<?xml version="1.0" encoding="utf-8"?>
<!-- Generator: Adobe Illustrator 21.0.0, SVG Export Plug-In . SVG Version: 6.00 Build 0)  -->
<svg version="1.1" xmlns="http://www.w3.org/2000/svg" xmlns:xlink="http://www.w3.org/1999/xlink" x="0px" y="0px"
	 viewBox="0 0 64 64" style="enable-background:new 0 0 64 64;" xml:space="preserve">
<style type="text/css">
	.st0{fill:#68C7C2;}
	.st1{fill:#1CACAB;}
	.st2{fill:#0B3442;}
	.st3{fill:#002539;}
	.st4{fill:#D22227;}
	.st5{fill:#DD2B26;}
	.st6{fill:#F2F2F2;}
	.st7{fill:#A31C37;}
	.st8{fill:#CCCCCC;}
	.st9{fill:#F99D28;}
	.st10{fill:#FCB216;}
	.st11{fill:#FED767;}
	.st12{fill:#F47D36;}
	.st13{fill:#F78F1E;}
	.st14{fill:#FFCA3E;}
	.st15{fill:#2E599C;}
	.st16{fill:#283996;}
	.st17{fill:#4279BD;}
	.st18{fill:#538AC8;}
	.st19{fill:#CCDDE7;}
	.st20{fill:#ABBAC3;}
	.st21{fill:#F05138;}
	.st22{fill:#3B6BB4;}
	.st23{fill:#E54325;}
	.st24{fill:#FEBF3F;}
	.st25{fill:#E6E6E6;}
	.st26{fill:#FFE8C9;}
	.st27{fill:#999999;}
	.st28{fill:#B3B3B3;}
	.st29{fill:none;stroke:#000000;stroke-linecap:round;stroke-linejoin:round;stroke-miterlimit:10;}
	.st30{fill:#BD8150;}
	.st31{fill:#DFA57A;}
	.st32{fill:#FDCC99;}
	.st33{fill:#FED9B4;}
	.st34{fill:#EE2761;}
	.st35{fill:#EF4E79;}
	.st36{fill:#DB1B51;}
	.st37{fill:#FBB684;}
	.st38{fill:#354E5A;}
	.st39{fill:#55C9E9;}
	.st40{fill:#02BFE2;}
	.st41{fill:#0980B7;}
	.st42{fill:#A36841;}
	.st43{fill:#7EC3EC;}
	.st44{fill:#65A8DC;}
	.st45{fill:#57646E;}
	.st46{fill:#7A8D9D;}
	.st47{fill:#FEE7A3;}
	.st48{fill:#CC2B57;}
	.st49{fill:#F16F8D;}
	.st50{fill:#00969D;}
	.st51{fill:#00A8C7;}
	.st52{fill:#00B08E;}
	.st53{fill:#56BF98;}
	.st54{fill:#8AD5EC;}
</style>
<g id="guides">
</g>
<g id="_x32_5._location_pin">
</g>
<g id="_x32_4._first_aid_kit">
</g>
<g id="_x32_3._medicine">
</g>
<g id="_x32_2._pills">
</g>
<g id="_x32_1._flask">
</g>
<g id="_x32_0._syringe">
</g>
<g id="_x31_9._brain">
</g>
<g id="_x31_8._bandage">
</g>
<g id="_x31_7._bed">
</g>
<g id="_x31_6._blood_test">
</g>
<g id="_x31_5._rx">
</g>
<g id="_x31_4._injury">
</g>
<g id="_x31_3._call">
</g>
<g id="_x31_2._heart">
</g>
<g id="_x31_1._stethoscope">
</g>
<g id="_x31_0._hospital">
</g>
<g id="_x39_._blood_donation">
</g>
<g id="_x38_._charity">
	<path class="st37" d="M59.6199951,37.789978L47.7199707,53.4199829l-0.6199951,0.8099976
		C46.25,55.3399658,44.9199829,56,43.5200195,56H15.1599731c-1.1999512,0-2.3399658-0.4700317-3.1900024-1.3200073L9.289978,52H9V39
		h24.5c2.4799805,0,4.5,2.0199585,4.5,4.5c0,1.4199829-0.6699829,2.6699829-1.710022,3.5h3.25
		c1.0900269,0,2.1000366-0.4899902,2.7700195-1.3500366l0.7700195-1c0.0100098,0,0.0100098-0.0099487,0.0100098-0.0099487
		l9.5299683-12.25c0.3699951-0.4800415,0.8300171-0.8700562,1.3400269-1.1600342
		c0.5099487-0.2700195,1.0700073-0.460022,1.6699829-0.5200195c1.2000122-0.1300049,2.3800049,0.2300415,3.3099976,1
		C60.7600098,33.2299805,61.0599976,35.8999634,59.6199951,37.789978z"/>
	<path class="st32" d="M59.6199951,37.789978L47.7199707,53.4199829C47.0599976,53.7999878,46.2999878,54,45.5200195,54H17.1599731
		c-1.1999512,0-2.3399658-0.4700317-3.1900024-1.3200073L11.289978,50H11V39h22.5c2.4799805,0,4.5,2.0199585,4.5,4.5
		c0,1.4199829-0.6699829,2.6699829-1.710022,3.5h3.25c1.0900269,0,2.1000366-0.4899902,2.7700195-1.3500366l0.7700195-1
		c0.0100098,0,0.0100098-0.0099487,0.0100098-0.0099487l9.5299683-12.25
		c0.3699951-0.4800415,0.8300171-0.8700562,1.3400269-1.1600342c0.5099487-0.2700195,1.0700073-0.460022,1.6699829-0.5200195
		c1.2000122-0.1300049,2.3800049,0.2300415,3.3099976,1C60.7600098,33.2299805,61.0599976,35.8999634,59.6199951,37.789978z"/>
	<path class="st15" d="M10,39.5v14c0,1.3800049-1.1199951,2.5-2.5,2.5h-2c-1.2800293,0-2.3300171-0.960022-2.4799805-2.1900024
		C3.0100098,53.7099609,3,53.5999756,3,53.5v-14C3,38.1199951,4.1199951,37,5.5,37h2
		c0.1699829,0,0.3300171,0.0199585,0.4799805,0.0499878C9.1300049,37.2699585,10,38.289978,10,39.5z"/>
	<path class="st37" d="M33.5,47h-13c-0.2763672,0-0.5,0.2236328-0.5,0.5s0.2236328,0.5,0.5,0.5h13
		c1.0605469,0,2.0235596-0.3840332,2.7935181-1H33.5z"/>
	<path class="st16" d="M10,39.5v14c0,1.3800049-1.1199951,2.5-2.5,2.5h-2c-1.2800293,0-2.3300171-0.960022-2.4799805-2.1900024
		c4.1999512-1.6099854,4.8599854-13.1799927,4.9599609-16.7600098C9.1300049,37.2699585,10,38.289978,10,39.5z"/>
	<path class="st48" d="M44.2299805,17.3299561c-0.2699585,1.5300293-1,3-2.1799927,4.1800537l-8.2799683,8.2799683
		C33.2999878,30.2600098,32.6699829,30.5199585,32,30.5199585s-1.2999878-0.2599487-1.7700195-0.7299805l-8.2799683-8.2799683
		c-2.3800049-2.3800049-2.9400024-5.9500122-1.6199951-8.7800293c0.7063065-1.5493145,1.9902363-2.7661858,3.3299561-3.4099731
		c1.6927204-0.8802481,3.6804981-1.0348558,5.3900146-0.5500488h0.0100098C30.1400146,9.0700073,31.1400146,9.6099854,32,10.3599854
		c0.5999756-0.5300293,1.2700195-0.9500122,1.9899902-1.2600098c2.6886063-1.1761894,6.1431313-0.6578197,8.4199829,1.7600098
		C44.0599976,12.6099854,44.6599731,15.0299683,44.2299805,17.3299561z"/>
	<path class="st34" d="M44.2299805,17.3299561c-0.2699585,1.5300293-1,3-2.1799927,4.1800537L34,29.5599976l-8.0499878-8.0499878
		c-3.9453068-3.9453068-2.8166466-11.0141191,3.0999756-12.7400513h0.0100098
		C30.1400146,9.0700073,31.1400146,9.6099854,32,10.3599854c0.5999756-0.5300293,1.2700195-0.9500122,1.9899902-1.2600098
		c2.6886063-1.1761894,6.1431313-0.6578197,8.4199829,1.7600098C44.0599976,12.6099854,44.6599731,15.0299683,44.2299805,17.3299561
		z"/>
	<g>
		<path d="M58.9365234,31.7124023c-0.9296875-0.7744141-2.1064453-1.128418-3.3056641-0.9990234
			c-1.2021484,0.1293945-2.2734375,0.7265625-3.015625,1.6811523L42.3066406,45.6484375
			C41.6386719,46.5073242,40.6318359,47,39.5439453,47h-3.2504272C37.3251343,46.1746826,38,44.9208984,38,43.5
			c0-2.4814453-2.0185547-4.5-4.5-4.5H9.9494019C9.7171021,37.8602905,8.7072144,37,7.5,37h-2C4.121582,37,3,38.121582,3,39.5v4
			C3,43.7763672,3.2236328,44,3.5,44S4,43.7763672,4,43.5v-4C4,38.6728516,4.6728516,38,5.5,38h2C8.3271484,38,9,38.6728516,9,39.5
			v14C9,54.3271484,8.3271484,55,7.5,55h-2C4.6728516,55,4,54.3271484,4,53.5v-6C4,47.2236328,3.7763672,47,3.5,47
			S3,47.2236328,3,47.5v6C3,54.878418,4.121582,56,5.5,56h2c1.378418,0,2.5-1.121582,2.5-2.5v-0.7929688l1.9750977,1.9750977
			C12.824707,55.5317383,13.9545898,56,15.1567383,56h28.3618164c1.3964844,0,2.734375-0.6625977,3.5791016-1.7724609
			l8.3232422-10.9243164c0.1679688-0.2197266,0.125-0.5336914-0.0947266-0.7011719
			c-0.2167969-0.1665039-0.5332031-0.125-0.7001953,0.0947266L46.3027344,53.621582
			C45.6455078,54.4848633,44.6044922,55,43.5185547,55H15.1567383c-0.9345703,0-1.8134766-0.3637695-2.4746094-1.0249023
			L10,51.2929688V40h23.5c1.9296875,0,3.5,1.5703125,3.5,3.5S35.4296875,47,33.5,47h-13c-0.2763672,0-0.5,0.2236328-0.5,0.5
			s0.2236328,0.5,0.5,0.5h13h6.0439453c1.3984375,0,2.6933594-0.6333008,3.5517578-1.7373047l10.3085938-13.2539063
			c0.5742188-0.7387695,1.4033203-1.2011719,2.3339844-1.3012695c0.9306641-0.1005859,1.8388672,0.1743164,2.5576172,0.7734375
			c1.4111328,1.1757813,1.6445313,3.2412109,0.53125,4.7021484l-1.9150391,2.5136719
			c-0.1679688,0.2197266-0.125,0.5336914,0.0947266,0.7011719c0.2167969,0.1655273,0.5332031,0.1254883,0.7001953-0.0947266
			l1.9150391-2.5136719C61.0605469,35.9013672,60.7597656,33.2319336,58.9365234,31.7124023z"/>
		<path d="M30.2324219,29.7885742C30.7041016,30.2607422,31.3320313,30.5209961,32,30.5209961
			s1.2958984-0.2602539,1.7675781-0.7324219l3.4355469-3.4350586c0.1953125-0.1953125,0.1953125-0.5117188,0-0.7070313
			s-0.5117188-0.1953125-0.7070313,0l-3.4355469,3.4350586c-0.5664063,0.5664063-1.5546875,0.5664063-2.1210938,0
			l-8.277832-8.277832c-2.5742188-2.5737305-2.7299805-6.7260742-0.3466797-9.2558594
			c1.2172852-1.293457,2.8642578-2.0205078,4.6367188-2.046875c1.7666016-0.0332031,3.440918,0.6494141,4.6948242,1.902832
			c0.1953125,0.1953125,0.5117188,0.1953125,0.7070313,0c1.2539063-1.2539063,2.8808594-1.9399414,4.6943359-1.9033203
			c1.7724609,0.0268555,3.4199219,0.753418,4.6376953,2.046875c2.3818359,2.5302734,2.2265625,6.6826172-0.3466797,9.2563477
			l-1.8427734,1.8427734c-0.1953125,0.1953125-0.1953125,0.5117188,0,0.7070313s0.5117188,0.1953125,0.7070313,0
			l1.8427734-1.8427734c2.9511719-2.9521484,3.1162109-7.7290039,0.3681641-10.6489258
			c-1.4052734-1.4921875-3.3056641-2.3305664-5.3515701-2.3608398C35.1894531,8.449707,33.4003906,9.1308594,32,10.3647461
			c-1.3994141-1.2333984-3.168457-1.8891602-5.0634766-1.8637695c-2.0454102,0.0307617-3.9453125,0.8691406-5.3496094,2.3613281
			c-2.75,2.9194336-2.5849609,7.6962891,0.3676758,10.6484375L30.2324219,29.7885742z"/>
	</g>
</g>
<g id="_x37_._test_tube">
</g>
<g id="_x36_._expenses">
</g>
<g id="_x35_._folder">
</g>
<g id="_x34_._insurance">
</g>
<g id="_x33_._dna">
</g>
<g id="_x32_._health_report">
</g>
<g id="_x31_._ambulance">
</g>
</svg>
